<mxfile host="65bd71144e">
    <diagram id="HBKwzXFBgaO_tpO9oZrh" name="Page-1">
        <mxGraphModel dx="662" dy="467" grid="1" gridSize="10" guides="1" tooltips="1" connect="1" arrows="1" fold="1" page="1" pageScale="1" pageWidth="850" pageHeight="1100" math="0" shadow="0">
            <root>
                <mxCell id="0"/>
                <mxCell id="1" parent="0"/>
                <mxCell id="2" value="" style="ellipse;whiteSpace=wrap;html=1;" vertex="1" parent="1">
                    <mxGeometry x="80" y="160" width="10" height="20" as="geometry"/>
                </mxCell>
                <mxCell id="4" value="" style="endArrow=classic;html=1;exitX=1;exitY=0.5;exitDx=0;exitDy=0;" edge="1" parent="1" source="2">
                    <mxGeometry width="50" height="50" relative="1" as="geometry">
                        <mxPoint x="320" y="270" as="sourcePoint"/>
                        <mxPoint x="570" y="170" as="targetPoint"/>
                    </mxGeometry>
                </mxCell>
                <mxCell id="7" value="" style="endArrow=classic;html=1;fillColor=#f8cecc;strokeColor=#b85450;" edge="1" parent="1">
                    <mxGeometry width="50" height="50" relative="1" as="geometry">
                        <mxPoint x="120" y="170" as="sourcePoint"/>
                        <mxPoint x="480" y="170" as="targetPoint"/>
                        <Array as="points">
                            <mxPoint x="120" y="220"/>
                            <mxPoint x="170" y="210"/>
                            <mxPoint x="380" y="210"/>
                            <mxPoint x="470" y="210"/>
                            <mxPoint x="490" y="230"/>
                        </Array>
                    </mxGeometry>
                </mxCell>
                <mxCell id="11" value="" style="endArrow=classic;html=1;" edge="1" parent="1">
                    <mxGeometry width="50" height="50" relative="1" as="geometry">
                        <mxPoint x="130" y="220" as="sourcePoint"/>
                        <mxPoint x="280" y="210" as="targetPoint"/>
                        <Array as="points">
                            <mxPoint x="190" y="240"/>
                            <mxPoint x="280" y="250"/>
                        </Array>
                    </mxGeometry>
                </mxCell>
                <mxCell id="12" value="" style="endArrow=classic;html=1;" edge="1" parent="1">
                    <mxGeometry width="50" height="50" relative="1" as="geometry">
                        <mxPoint x="130" y="220" as="sourcePoint"/>
                        <mxPoint x="340" y="200" as="targetPoint"/>
                        <Array as="points">
                            <mxPoint x="160" y="260"/>
                            <mxPoint x="190" y="290"/>
                            <mxPoint x="280" y="280"/>
                            <mxPoint x="340" y="280"/>
                        </Array>
                    </mxGeometry>
                </mxCell>
                <mxCell id="13" value="" style="endArrow=classic;html=1;" edge="1" parent="1">
                    <mxGeometry width="50" height="50" relative="1" as="geometry">
                        <mxPoint x="260" y="250" as="sourcePoint"/>
                        <mxPoint x="370" y="210" as="targetPoint"/>
                        <Array as="points">
                            <mxPoint x="310" y="250"/>
                            <mxPoint x="370" y="240"/>
                        </Array>
                    </mxGeometry>
                </mxCell>
                <mxCell id="14" value="" style="endArrow=classic;html=1;" edge="1" parent="1">
                    <mxGeometry width="50" height="50" relative="1" as="geometry">
                        <mxPoint x="390" y="210" as="sourcePoint"/>
                        <mxPoint x="470" y="210" as="targetPoint"/>
                        <Array as="points">
                            <mxPoint x="400" y="270"/>
                            <mxPoint x="450" y="280"/>
                        </Array>
                    </mxGeometry>
                </mxCell>
                <mxCell id="15" value="" style="endArrow=classic;html=1;" edge="1" parent="1">
                    <mxGeometry width="50" height="50" relative="1" as="geometry">
                        <mxPoint x="240" y="290" as="sourcePoint"/>
                        <mxPoint x="390" y="290" as="targetPoint"/>
                        <Array as="points">
                            <mxPoint x="310" y="300"/>
                            <mxPoint x="350" y="330"/>
                        </Array>
                    </mxGeometry>
                </mxCell>
                <mxCell id="16" value="" style="endArrow=classic;html=1;" edge="1" parent="1">
                    <mxGeometry width="50" height="50" relative="1" as="geometry">
                        <mxPoint x="340" y="280" as="sourcePoint"/>
                        <mxPoint x="380" y="220" as="targetPoint"/>
                        <Array as="points">
                            <mxPoint x="390" y="300"/>
                        </Array>
                    </mxGeometry>
                </mxCell>
            </root>
        </mxGraphModel>
    </diagram>
</mxfile>